<svg width="85" height="85" viewBox="0 0 85 85" fill="none" xmlns="http://www.w3.org/2000/svg">
<g clip-path="url(#clip0_519_17382)" filter="url(#filter0_b_519_17382)">
<g filter="url(#filter1_b_519_17382)">
<path fill-rule="evenodd" clip-rule="evenodd" d="M46.837 27.2837C47.7619 26.7866 48.6713 26.3498 49.5563 25.9794C49.4961 24.9726 49.8607 23.9468 50.6444 23.1927C52.0649 21.8259 54.3245 21.8694 55.6913 23.2899C56.0621 23.6753 56.3291 24.1224 56.493 24.5967C57.926 24.7618 59.1034 25.331 59.8953 26.3334C60.724 27.3825 61.0431 28.7957 60.9284 30.4281C60.7614 32.804 59.6757 35.6859 57.8722 38.7525C59.6304 39.829 61.1333 40.9523 62.332 42.0854C63.7422 43.4185 64.7671 44.7989 65.2622 46.1672C65.7659 47.5591 65.7046 48.9032 65.0206 50.0735C64.3517 51.2181 63.1467 52.0945 61.5618 52.7123C59.4606 53.5314 56.6571 53.9108 53.4335 53.8632C53.3696 56.5458 53.0214 58.9302 52.3853 60.8494C51.8181 62.5609 51.0197 63.9087 49.9841 64.7666C48.9801 65.5983 47.7891 65.9366 46.5022 65.7319C46.4185 65.8323 46.3284 65.9293 46.2319 66.0221C44.8114 67.3889 42.5518 67.3453 41.185 65.9248C40.0317 64.7261 39.8826 62.93 40.7177 61.577C39.8327 60.4652 38.9754 59.1657 38.163 57.7165C35.7566 59.0096 33.4701 59.8869 31.4565 60.2567C29.6721 60.5843 28.0949 60.5144 26.8398 59.9766C25.5531 59.4253 24.6719 58.4089 24.2805 57.014C23.8987 55.6522 24.004 54.0123 24.4853 52.2274C24.969 50.4338 25.8473 48.4379 27.0797 46.3298L27.1278 46.2476C24.5212 44.6515 22.4415 42.9317 21.101 41.2081C20.0383 39.8418 19.4291 38.4582 19.4066 37.1275C19.3864 35.9345 19.8396 34.8681 20.7032 33.9882C20.2754 32.72 20.5821 31.2624 21.6105 30.2728C23.0311 28.906 25.2906 28.9496 26.6574 30.3701C26.9429 30.6668 27.1668 31 27.3295 31.3541C28.6335 31.1861 30.0562 31.1147 31.5665 31.137C31.6694 26.8093 32.5119 23.2715 34.0998 21.1967C35.0015 20.0186 36.1445 19.3154 37.4689 19.2209C38.7717 19.1278 40.1195 19.6334 41.4366 20.5976C43.3109 21.9697 45.1631 24.2976 46.837 27.2837ZM55.594 28.3368C56.2245 27.7302 56.5837 26.9477 56.6688 26.1408C57.613 26.3119 58.2785 26.7112 58.716 27.2651C59.2411 27.9297 59.5271 28.9298 59.4292 30.3227C59.2836 32.3951 58.3051 35.0521 56.5753 37.9929C54.6483 36.9125 52.5122 35.9173 50.2538 35.0394C49.7888 33.6916 49.2802 32.3806 48.733 31.1247C48.3518 30.25 47.9553 29.4097 47.546 28.6088C48.3712 28.1652 49.18 27.7736 49.9654 27.4381C50.1174 27.7243 50.3113 27.9944 50.5472 28.2396C51.914 29.6601 54.1735 29.7036 55.594 28.3368ZM27.6547 32.8279C27.659 33.77 27.2926 34.7122 26.5602 35.417C25.1425 36.7811 22.889 36.7404 21.5214 35.3281C21.0896 35.8736 20.8985 36.468 20.9093 37.1021C20.9243 37.9923 21.3399 39.0674 22.2873 40.2855C23.4914 41.8336 25.4215 43.4408 27.9154 44.9676C29.1126 43.1031 30.5413 41.2136 32.1398 39.3705C31.7891 37.0544 31.591 34.7832 31.56 32.6399C30.1614 32.6187 28.8506 32.6811 27.6547 32.8279ZM47.2273 64.2873C47.8862 64.2867 48.4827 64.0587 49.0254 63.6092C49.7662 62.9955 50.4419 61.936 50.9587 60.3766C51.5408 58.6205 51.8713 56.3818 51.9314 53.8118C50.7601 53.7497 49.5426 53.6355 48.291 53.4697C47.2798 53.3358 46.2565 53.1696 45.2281 52.9731C44.7773 53.3347 44.323 53.6876 43.8661 54.031C42.3902 55.1401 40.9152 56.129 39.4724 56.9788C40.2107 58.2962 40.982 59.4746 41.77 60.4842C43.1807 59.5366 45.11 59.7082 46.3292 60.9752C47.2059 61.8863 47.5023 63.1427 47.2273 64.2873ZM47.3552 31.7251C47.7271 32.5785 48.0808 33.4588 48.4147 34.3598C46.2384 33.5964 43.975 32.9439 41.6964 32.4286C43.222 31.2624 44.7486 30.2276 46.2361 29.3483C46.6188 30.1001 46.9928 30.8933 47.3552 31.7251ZM40.5488 21.8102C42.199 23.0182 43.9224 25.1573 45.5276 28.0214C43.631 29.1384 41.6878 30.4905 39.7718 32.027C37.4468 31.5828 35.1866 31.3007 33.0686 31.1884C33.167 26.9742 33.9895 23.8136 35.2933 22.1101C35.9905 21.1991 36.7665 20.7777 37.576 20.7199C38.4069 20.6606 39.4077 20.9749 40.5488 21.8102ZM33.4528 37.9082C33.223 36.1143 33.0911 34.3617 33.0639 32.6932C34.709 32.7835 36.4541 32.9803 38.2601 33.2827C38.0352 33.476 37.811 33.6718 37.5876 33.8698C36.1371 35.1556 34.7495 36.5125 33.4528 37.9082ZM38.5845 34.9945C36.8559 36.5268 35.2228 38.1593 33.7341 39.8327C34.1902 42.612 34.869 45.4525 35.7456 48.2012C35.8105 48.4049 35.8764 48.6075 35.9431 48.809C38.8095 49.8826 41.8345 50.7517 44.8277 51.3622C47.1188 49.477 49.3069 47.3694 51.2658 45.1674C50.7694 42.1414 50.0157 39.0858 49.0568 36.1911C46.522 35.2416 43.8364 34.442 41.1277 33.8413C40.808 33.7704 40.4894 33.7026 40.1722 33.638C39.6407 34.0754 39.1108 34.5279 38.5845 34.9945ZM29.214 45.7268C30.1576 44.2624 31.2526 42.7769 32.4669 41.3091C32.8886 43.5762 33.4501 45.864 34.1379 48.0968C33.6792 47.9064 33.2259 47.7108 32.7788 47.5102C31.5073 46.9397 30.3153 46.342 29.214 45.7268ZM37.454 56.3913C36.4591 54.4447 35.5448 52.2753 34.7461 49.9607C33.8676 49.6192 33.005 49.2589 32.1636 48.8813C30.8407 48.2878 29.5891 47.6601 28.4246 47.0072L28.3771 47.0882C27.1921 49.1153 26.3764 50.9869 25.9364 52.6188C25.4939 54.2593 25.4457 55.6028 25.7275 56.608C26.0001 57.5796 26.5765 58.2288 27.4318 58.5952C28.3186 58.9752 29.5679 59.0754 31.185 58.7786C33.017 58.4421 35.1563 57.6263 37.454 56.3913ZM36.5852 50.6403C37.2516 52.4384 37.9849 54.1218 38.7639 55.6518C40.1294 54.8446 41.5389 53.8999 42.9631 52.8296C43.0768 52.7442 43.1903 52.6581 43.3036 52.5715C41.0413 52.0599 38.7765 51.4089 36.5852 50.6403ZM50.8621 36.9033C51.5442 39.1177 52.108 41.4057 52.533 43.691C53.2 42.8849 53.8336 42.0702 54.4279 41.2529C54.9143 40.5839 55.3673 39.923 55.7859 39.2733C54.2675 38.4251 52.6109 37.6292 50.8621 36.9033ZM46.7399 51.7174C48.4233 50.2702 50.0419 48.712 51.5472 47.0919C51.5555 47.1572 51.5638 47.2226 51.5719 47.2878C51.7903 49.0447 51.9104 50.7279 51.9361 52.307C50.8354 52.2466 49.683 52.1381 48.4883 51.9798C47.9093 51.9032 47.326 51.8156 46.7399 51.7174ZM53.0633 47.1025C53.2901 48.9271 53.4159 50.6916 53.44 52.3602C56.5328 52.4072 59.1387 52.0438 61.0159 51.312C62.4155 50.7664 63.2845 50.0656 63.7231 49.3152C64.1467 48.5905 64.2265 47.7217 63.849 46.6786C63.463 45.6119 62.6154 44.4213 61.2996 43.1776C60.1906 42.1292 58.774 41.0667 57.0846 40.0324C56.6379 40.7281 56.1568 41.4307 55.6434 42.1367C54.7881 43.313 53.8549 44.4827 52.8602 45.6296C52.9347 46.122 53.0025 46.6132 53.0633 47.1025ZM42.3243 61.9609C41.5019 62.7522 41.4767 64.0604 42.268 64.8828C43.0593 65.7052 44.3675 65.7304 45.1899 64.9391C46.0123 64.1478 46.0375 62.8396 45.2462 62.0172C44.4549 61.1948 43.1467 61.1696 42.3243 61.9609ZM51.6301 27.1976C50.8388 26.3752 50.864 25.067 51.6864 24.2757C52.5088 23.4844 53.817 23.5096 54.6083 24.332C55.3996 25.1544 55.3744 26.4625 54.552 27.2538C53.7296 28.0452 52.4215 28.02 51.6301 27.1976ZM22.6526 31.3558C21.8302 32.1471 21.805 33.4553 22.5963 34.2777C23.3876 35.1001 24.6957 35.1253 25.5181 34.334C26.3405 33.5427 26.3658 32.2345 25.5744 31.4121C24.7831 30.5897 23.475 30.5645 22.6526 31.3558Z" fill="white" fill-opacity="0.4"/>
</g>
</g>
<defs>
<filter id="filter0_b_519_17382" x="-26.7513" y="-26.7513" width="138.503" height="138.503" filterUnits="userSpaceOnUse" color-interpolation-filters="sRGB">
<feFlood flood-opacity="0" result="BackgroundImageFix"/>
<feGaussianBlur in="BackgroundImageFix" stdDeviation="13.35"/>
<feComposite in2="SourceAlpha" operator="in" result="effect1_backgroundBlur_519_17382"/>
<feBlend mode="normal" in="SourceGraphic" in2="effect1_backgroundBlur_519_17382" result="shape"/>
</filter>
<filter id="filter1_b_519_17382" x="15.3983" y="15.2022" width="54.2034" height="55.8248" filterUnits="userSpaceOnUse" color-interpolation-filters="sRGB">
<feFlood flood-opacity="0" result="BackgroundImageFix"/>
<feGaussianBlur in="BackgroundImageFix" stdDeviation="2"/>
<feComposite in2="SourceAlpha" operator="in" result="effect1_backgroundBlur_519_17382"/>
<feBlend mode="normal" in="SourceGraphic" in2="effect1_backgroundBlur_519_17382" result="shape"/>
</filter>
<clipPath id="clip0_519_17382">
<rect width="60" height="60" fill="white" transform="translate(43.3189) scale(1.00192) rotate(46.1038)"/>
</clipPath>
</defs>
</svg>
