<svg width="385" height="386" viewBox="0 0 385 386" fill="none" xmlns="http://www.w3.org/2000/svg">
<path d="M114.032 349.595C109.841 357.977 113.217 368.246 121.936 371.683C147.9 381.918 175.845 386.411 203.839 384.767C237.495 382.79 270.042 372.011 298.225 353.508C326.408 335.005 349.238 309.427 364.433 279.331C377.072 254.298 384.06 226.87 384.991 198.978C385.304 189.611 377.224 182.43 367.866 182.942L332.54 184.878C323.182 185.391 316.134 193.422 315.357 202.761C314.048 218.501 309.721 233.897 302.555 248.089C292.83 267.351 278.219 283.721 260.182 295.563C242.145 307.405 221.315 314.304 199.775 315.569C183.903 316.501 168.056 314.35 153.094 309.294C144.215 306.293 134.044 309.568 129.853 317.951L114.032 349.595Z" fill="#028DFD"/>
<path d="M366.404 167.996C375.684 166.685 382.219 158.075 380.096 148.946C378.32 141.305 376.078 133.78 373.384 126.412C370.165 117.61 359.983 113.98 351.498 117.961L319.471 132.99C310.986 136.972 307.46 147.058 310.239 156.009C310.519 156.912 310.789 157.82 311.049 158.73C313.621 167.742 322.093 174.254 331.373 172.943L366.404 167.996Z" fill="#BE2C2C"/>
<path d="M344.362 104.339C352.465 99.6303 355.277 89.1925 349.874 81.535C336.56 62.6667 319.932 46.3083 300.754 33.2793C276.887 17.0645 249.681 6.42111 221.147 2.13561C192.613 -2.14986 163.481 0.0322316 135.904 8.52058C113.745 15.3412 93.0456 26.0935 74.7762 40.2183C67.3617 45.9507 66.9835 56.7539 73.3462 63.6351L97.3652 89.6108C103.728 96.4919 114.409 96.8001 122.098 91.4421C132.538 84.1677 144.07 78.5342 156.296 74.7709C173.946 69.3384 192.59 67.9418 210.852 70.6845C229.114 73.4273 246.525 80.2391 261.8 90.6164C272.382 97.8053 281.75 106.578 289.593 116.598C295.369 123.978 305.669 126.821 313.772 122.113L344.362 104.339Z" fill="#FF8F34"/>
<path d="M65.4929 71.3679C58.7109 64.8995 47.9031 65.1108 42.0567 72.4357C27.6513 90.4846 16.5804 111.016 9.41804 133.067C0.50447 160.509 -2.12762 189.604 1.71632 218.201C5.56027 246.797 15.782 274.165 31.6258 298.279C44.3569 317.656 60.4564 334.535 79.1166 348.139C86.6897 353.66 97.1697 351.01 102.003 342.98L120.248 312.669C125.081 304.639 122.397 294.297 115.107 288.407C105.209 280.411 96.5827 270.908 89.5582 260.216C79.4182 244.783 72.8763 227.268 70.4162 208.966C67.956 190.664 69.6406 172.044 75.3453 154.48C79.2971 142.314 85.1082 130.87 92.5431 120.544C98.0192 112.938 97.8762 102.254 91.0942 95.7854L65.4929 71.3679Z" fill="#9934FF"/>
</svg>
