<svg width="475" height="475" viewBox="0 0 475 475" fill="none" xmlns="http://www.w3.org/2000/svg">
<g opacity="0.5" filter="url(#filter0_f_519_17591)">
<path d="M158.869 394.774C154.671 403.169 158.053 413.453 166.785 416.895C192.786 427.144 220.772 431.644 248.807 429.997C282.512 428.018 315.106 417.223 343.33 398.693C371.553 380.163 394.417 354.547 409.634 324.408C422.291 299.338 429.289 271.87 430.222 243.938C430.535 234.557 422.443 227.366 413.072 227.879L377.695 229.818C368.323 230.331 361.264 238.374 360.486 247.727C359.175 263.489 354.842 278.908 347.666 293.121C337.927 312.41 323.294 328.804 305.231 340.663C287.168 352.523 266.307 359.431 244.736 360.698C228.841 361.632 212.971 359.478 197.987 354.414C189.096 351.409 178.91 354.689 174.712 363.084L158.869 394.774Z" fill="#028DFD"/>
<path d="M411.607 212.911C420.901 211.598 427.445 202.975 425.32 193.834C423.541 186.181 421.296 178.645 418.597 171.267C415.374 162.452 405.177 158.816 396.68 162.803L364.606 177.854C356.109 181.842 352.577 191.943 355.36 200.906C355.642 201.811 355.912 202.72 356.172 203.631C358.748 212.656 367.232 219.178 376.525 217.866L411.607 212.911Z" fill="#BE2C2C"/>
<path d="M389.534 149.161C397.649 144.446 400.465 133.993 395.053 126.324C381.72 107.429 365.068 91.0464 345.862 77.9985C321.96 61.7602 294.715 51.1013 266.14 46.8095C237.564 42.5178 208.39 44.7031 180.773 53.2038C158.582 60.0344 137.852 70.8022 119.556 84.9475C112.131 90.6883 111.752 101.507 118.124 108.398L142.178 134.412C148.55 141.303 159.246 141.612 166.947 136.246C177.402 128.961 188.95 123.319 201.195 119.55C218.87 114.11 237.541 112.711 255.829 115.458C274.118 118.205 291.555 125.027 306.852 135.419C317.449 142.618 326.831 151.404 334.684 161.438C340.469 168.829 350.784 171.676 358.899 166.961L389.534 149.161Z" fill="#FF8F34"/>
<path d="M110.259 116.142C103.467 109.665 92.6436 109.876 86.7888 117.212C72.3624 135.287 61.2754 155.848 54.1026 177.931C45.1761 205.413 42.5402 234.551 46.3897 263.189C50.2392 291.827 60.4758 319.234 76.3427 343.384C89.0922 362.789 105.215 379.692 123.903 393.316C131.487 398.845 141.982 396.191 146.822 388.15L165.093 357.794C169.933 349.753 167.246 339.395 159.945 333.497C150.033 325.489 141.394 315.972 134.359 305.266C124.205 289.81 117.653 272.269 115.189 253.941C112.726 235.612 114.413 216.964 120.126 199.376C124.083 187.191 129.903 175.731 137.348 165.39C142.833 157.773 142.689 147.073 135.898 140.595L110.259 116.142Z" fill="#9934FF"/>
</g>
<defs>
<filter id="filter0_f_519_17591" x="3.82061e-05" y="-2.29236e-05" width="474.901" height="475" filterUnits="userSpaceOnUse" color-interpolation-filters="sRGB">
<feFlood flood-opacity="0" result="BackgroundImageFix"/>
<feBlend mode="normal" in="SourceGraphic" in2="BackgroundImageFix" result="shape"/>
<feGaussianBlur stdDeviation="22.3009" result="effect1_foregroundBlur_519_17591"/>
</filter>
</defs>
</svg>
