<svg width="24" height="20" viewBox="0 0 24 20" fill="none" xmlns="http://www.w3.org/2000/svg">
<g clip-path="url(#clip0_519_17833)">
<path d="M7.55 19.9636C16.605 19.9636 21.558 12.4596 21.558 5.95565C21.558 5.74465 21.554 5.52865 21.544 5.31765C22.508 4.62065 23.34 3.75765 24 2.76865C23.102 3.16765 22.15 3.42865 21.174 3.54165C22.201 2.92665 22.971 1.95865 23.339 0.818647C22.373 1.39165 21.316 1.79565 20.213 2.01365C19.471 1.22465 18.489 0.702647 17.42 0.527647C16.35 0.352647 15.253 0.534647 14.298 1.04565C13.342 1.55665 12.582 2.36765 12.134 3.35465C11.686 4.34165 11.575 5.44765 11.819 6.50365C9.862 6.40565 7.948 5.89665 6.2 5.01165C4.452 4.12565 2.91 2.88265 1.673 1.36265C1.044 2.44665 0.852 3.72865 1.135 4.94965C1.418 6.16965 2.155 7.23665 3.196 7.93365C2.415 7.90865 1.65 7.69765 0.966 7.31965V7.38065C0.965 8.51765 1.358 9.61965 2.078 10.4996C2.799 11.3806 3.801 11.9836 4.916 12.2086C4.192 12.4066 3.432 12.4356 2.695 12.2926C3.009 13.2706 3.622 14.1266 4.446 14.7396C5.27 15.3526 6.265 15.6936 7.292 15.7146C5.548 17.0846 3.394 17.8276 1.177 17.8236C0.783 17.8236 0.39 17.7996 0 17.7516C2.253 19.1966 4.874 19.9646 7.55 19.9636Z" fill="white"/>
</g>
<defs>
<clipPath id="clip0_519_17833">
<rect width="24" height="20" fill="white"/>
</clipPath>
</defs>
</svg>
