<svg width="120" height="120" viewBox="0 0 120 120" fill="none" xmlns="http://www.w3.org/2000/svg">
<g filter="url(#filter0_b_519_17466)">
<g filter="url(#filter1_b_519_17466)">
<path d="M53.5422 86.5422C41.7791 83.6803 34.7038 72.0553 37.5658 60.2923L41.0881 45.8146L44.1043 46.5484L40.5819 61.0261C38.1603 70.9795 44.3227 81.1044 54.276 83.5261C64.2294 85.9477 74.3544 79.7853 76.776 69.832L80.2984 55.3543L83.3146 56.0882L79.7922 70.5658C76.9303 82.3289 65.3053 89.4042 53.5422 86.5422Z" fill="#008CFF" fill-opacity="0.2"/>
</g>
<path d="M41.0881 45.8146L44.1043 46.5484L42.6366 52.5808L39.6205 51.847L41.0881 45.8146ZM80.2984 55.3543L83.3146 56.0882L81.8469 62.1205L78.8307 61.3867L80.2984 55.3543Z" fill="black" fill-opacity="0.3"/>
<g filter="url(#filter2_b_519_17466)">
<path d="M57.1454 84.8632L54.944 93.9117L48.9116 92.444L51.1131 83.3955M30.855 94.4403L31.5888 91.4242C32.0291 89.6145 33.5291 88.7015 35.3388 89.1418L68.5167 97.2139C70.3264 97.6542 71.2394 99.1542 70.7991 100.964L70.0653 103.98L30.855 94.4403Z" fill="#008CFF" fill-opacity="0.2"/>
</g>
<path d="M41.3712 90.6096L35.3388 89.1419C33.5291 88.7016 32.0291 89.6146 31.5888 91.4243L30.855 94.4404L36.8874 95.9081L37.6212 92.8919C38.0615 91.0822 39.5615 90.1693 41.3712 90.6096Z" fill="black" fill-opacity="0.3"/>
<g filter="url(#filter3_b_519_17466)">
<path d="M46.3867 50.2985L40.3544 48.8309C38.5447 48.3906 37.6317 46.8906 38.072 45.0809C38.5123 43.2712 40.0123 42.3582 41.822 42.7985L47.8544 44.2662L46.3867 50.2985ZM82.5808 59.1044L76.5485 57.6368L78.0161 51.6044L84.0485 53.0721C85.8582 53.5124 86.7711 55.0124 86.3308 56.8221C85.8905 58.6318 84.3905 59.5447 82.5808 59.1044Z" fill="#008CFF" fill-opacity="0.2"/>
</g>
<path d="M54.8631 81.1132C46.4178 79.0585 41.3967 70.8085 43.4514 62.3632L51.5235 29.1853C53.5782 20.74 61.8282 15.7189 70.2734 17.7736C78.7187 19.8283 83.7399 28.0783 81.6852 36.5236L73.6131 69.7015C71.5584 78.1468 63.3084 83.1679 54.8631 81.1132Z" fill="#000AFF" fill-opacity="0.1"/>
<g filter="url(#filter4_b_519_17466)">
<path d="M46.3867 50.2985L43.4514 62.3632C41.3967 70.8085 46.4179 79.0585 54.8632 81.1132C63.3085 83.1679 71.5585 78.1467 73.6132 69.7014L76.5485 57.6367L46.3867 50.2985Z" fill="#008CFF" fill-opacity="0.2"/>
</g>
<path d="M57.3507 57.758L75.4477 62.161L76.5485 57.6367L46.3867 50.2985L43.4514 62.3632C43.2313 63.268 43.0111 64.1729 43.0926 65.1511C43.0192 65.4527 42.9458 65.7543 43.1741 66.1293C43.0273 66.7326 43.1822 67.4092 43.337 68.0858C43.2636 68.3874 43.4919 68.7624 43.4185 69.064L43.883 71.0939C43.8097 71.3955 44.1113 71.4689 44.0379 71.7705C44.4944 72.5205 44.6492 73.1971 45.1057 73.9471L45.7904 75.0721C46.0186 75.4471 46.2469 75.8221 46.7767 76.2705C47.0049 76.6455 47.2332 77.0205 47.5348 77.0939C47.763 77.4689 48.2929 77.9173 48.5945 77.9907C51.2438 80.2326 54.4148 81.643 58.556 81.6921C65.9335 81.5702 72.3004 76.4104 74.0615 69.1716L74.9421 65.5522C72.8874 73.9974 64.6374 79.0186 56.1921 76.9639L55.8905 76.8905C51.0646 75.7164 48.4726 70.6132 49.5733 66.0889L50.3805 62.7711C50.6579 59.0049 54.0329 56.9508 57.3507 57.758Z" fill="black" fill-opacity="0.3"/>
<path d="M59.5521 48.7096C56.2343 47.9024 54.1802 44.5274 54.9874 41.2096L57.5558 30.653C59.317 23.4142 65.9121 18.6293 73.2162 18.809C71.4799 18.0671 69.3686 17.5534 67.1839 17.3414C59.5781 17.0883 53.1378 22.5497 51.3767 29.7886L46.3867 50.2986L76.5484 57.6368L77.6491 53.1125L59.5521 48.7096Z" fill="white" fill-opacity="0.1"/>
<path d="M62.4064 23.8463C63.2393 24.049 64.0788 23.5381 64.2814 22.7052C64.4841 21.8723 63.9732 21.0328 63.1403 20.8302C62.3074 20.6275 61.4679 21.1385 61.2653 21.9713C61.0626 22.8042 61.5736 23.6437 62.4064 23.8463Z" fill="#3C56B2" fill-opacity="0.3"/>
<path d="M68.4389 25.314C69.2718 25.5166 70.1112 25.0057 70.3139 24.1728C70.5165 23.3399 70.0056 22.5005 69.1727 22.2978C68.3398 22.0952 67.5003 22.6061 67.2977 23.439C67.095 24.2719 67.606 25.1113 68.4389 25.314Z" fill="#3C56B2" fill-opacity="0.3"/>
<path d="M74.4713 26.7816C75.3042 26.9843 76.1436 26.4734 76.3463 25.6405C76.5489 24.8076 76.038 23.9681 75.2051 23.7655C74.3722 23.5628 73.5327 24.0737 73.3301 24.9066C73.1275 25.7395 73.6384 26.579 74.4713 26.7816Z" fill="#3C56B2" fill-opacity="0.3"/>
<path d="M57.9227 29.1448C58.7556 29.3475 59.5951 28.8365 59.7977 28.0036C60.0004 27.1708 59.4894 26.3313 58.6565 26.1286C57.8236 25.926 56.9842 26.4369 56.7815 27.2698C56.5789 28.1027 57.0898 28.9422 57.9227 29.1448Z" fill="#3C56B2" fill-opacity="0.3"/>
<path d="M63.9551 30.6125C64.788 30.8151 65.6275 30.3042 65.8301 29.4713C66.0328 28.6384 65.5219 27.7989 64.689 27.5963C63.8561 27.3936 63.0166 27.9046 62.814 28.7375C62.6113 29.5704 63.1222 30.4098 63.9551 30.6125Z" fill="#3C56B2" fill-opacity="0.3"/>
<path d="M69.9873 32.0801C70.8202 32.2827 71.6597 31.7718 71.8623 30.9389C72.0649 30.106 71.554 29.2666 70.7211 29.0639C69.8882 28.8613 69.0488 29.3722 68.8461 30.2051C68.6435 31.038 69.1544 31.8775 69.9873 32.0801Z" fill="#3C56B2" fill-opacity="0.3"/>
<path d="M63.9551 30.6125C64.788 30.8151 65.6275 30.3042 65.8301 29.4713C66.0328 28.6384 65.5219 27.7989 64.689 27.5963C63.8561 27.3936 63.0166 27.9046 62.814 28.7375C62.6113 29.5704 63.1222 30.4098 63.9551 30.6125Z" fill="#3C56B2" fill-opacity="0.3"/>
<path d="M69.9873 32.0801C70.8202 32.2827 71.6597 31.7718 71.8623 30.9389C72.0649 30.106 71.554 29.2666 70.7211 29.0639C69.8882 28.8613 69.0488 29.3722 68.8461 30.2051C68.6435 31.038 69.1544 31.8775 69.9873 32.0801Z" fill="#3C56B2" fill-opacity="0.3"/>
<path d="M76.0197 33.5477C76.8526 33.7504 77.6921 33.2395 77.8947 32.4066C78.0974 31.5737 77.5864 30.7342 76.7536 30.5316C75.9207 30.3289 75.0812 30.8399 74.8786 31.6727C74.6759 32.5056 75.1868 33.3451 76.0197 33.5477Z" fill="#3C56B2" fill-opacity="0.3"/>
<path d="M63.9955 37.0118C64.8284 37.2144 65.6679 36.7035 65.8705 35.8706C66.0732 35.0377 65.5623 34.1983 64.7294 33.9956C63.8965 33.793 63.057 34.3039 62.8544 35.1368C62.6517 35.9697 63.1626 36.8092 63.9955 37.0118Z" fill="#3C56B2" fill-opacity="0.3"/>
<path d="M70.0277 38.4794C70.8606 38.6821 71.7001 38.1712 71.9027 37.3383C72.1053 36.5054 71.5944 35.6659 70.7615 35.4633C69.9286 35.2606 69.0892 35.7715 68.8865 36.6044C68.6839 37.4373 69.1948 38.2768 70.0277 38.4794Z" fill="#3C56B2" fill-opacity="0.3"/>
<path d="M76.0601 39.9471C76.893 40.1497 77.7325 39.6388 77.9351 38.8059C78.1378 37.973 77.6268 37.1335 76.794 36.9309C75.9611 36.7283 75.1216 37.2392 74.919 38.0721C74.7163 38.905 75.2272 39.7444 76.0601 39.9471Z" fill="#3C56B2" fill-opacity="0.3"/>
<path d="M51.9307 34.0765C52.7636 34.2791 53.6031 33.7682 53.8057 32.9353C54.0083 32.1024 53.4974 31.263 52.6645 31.0603C51.8316 30.8577 50.9922 31.3686 50.7895 32.2015C50.5869 33.0344 51.0978 33.8739 51.9307 34.0765Z" fill="#3C56B2" fill-opacity="0.3"/>
<path d="M57.9631 35.5441C58.796 35.7468 59.6355 35.2359 59.8381 34.403C60.0408 33.5701 59.5298 32.7306 58.6969 32.528C57.864 32.3253 57.0246 32.8363 56.8219 33.6692C56.6193 34.502 57.1302 35.3415 57.9631 35.5441Z" fill="#3C56B2" fill-opacity="0.3"/>
<path d="M63.9955 37.0118C64.8284 37.2144 65.6679 36.7035 65.8705 35.8706C66.0732 35.0377 65.5623 34.1983 64.7294 33.9956C63.8965 33.793 63.057 34.3039 62.8544 35.1368C62.6517 35.9697 63.1626 36.8092 63.9955 37.0118Z" fill="#3C56B2" fill-opacity="0.3"/>
<path d="M65.544 43.7779C66.3769 43.9806 67.2163 43.4696 67.419 42.6367C67.6216 41.8038 67.1107 40.9644 66.2778 40.7617C65.4449 40.5591 64.6054 41.07 64.4028 41.9029C64.2002 42.7358 64.7111 43.5753 65.544 43.7779Z" fill="#3C56B2" fill-opacity="0.3"/>
<path d="M71.5764 45.2456C72.4093 45.4482 73.2488 44.9373 73.4514 44.1044C73.654 43.2715 73.1431 42.432 72.3102 42.2294C71.4773 42.0267 70.6379 42.5377 70.4352 43.3706C70.2326 44.2034 70.7435 45.0429 71.5764 45.2456Z" fill="#3C56B2" fill-opacity="0.3"/>
<path d="M77.6086 46.7132C78.4415 46.9158 79.2809 46.4049 79.4836 45.572C79.6862 44.7391 79.1753 43.8997 78.3424 43.697C77.5095 43.4944 76.67 44.0053 76.4674 44.8382C76.2648 45.6711 76.7757 46.5106 77.6086 46.7132Z" fill="#3C56B2" fill-opacity="0.3"/>
<path d="M53.4794 40.8426C54.3123 41.0453 55.1517 40.5343 55.3544 39.7014C55.557 38.8686 55.0461 38.0291 54.2132 37.8265C53.3803 37.6238 52.5409 38.1347 52.3382 38.9676C52.1356 39.8005 52.6465 40.64 53.4794 40.8426Z" fill="#3C56B2" fill-opacity="0.3"/>
<path d="M59.5116 42.3103C60.3445 42.5129 61.1839 42.002 61.3866 41.1691C61.5892 40.3362 61.0783 39.4967 60.2454 39.2941C59.4125 39.0915 58.573 39.6024 58.3704 40.4353C58.1677 41.2682 58.6787 42.1076 59.5116 42.3103Z" fill="#3C56B2" fill-opacity="0.3"/>
<path d="M65.544 43.7779C66.3769 43.9806 67.2163 43.4696 67.419 42.6367C67.6216 41.8038 67.1107 40.9644 66.2778 40.7617C65.4449 40.5591 64.6054 41.07 64.4028 41.9029C64.2002 42.7358 64.7111 43.5753 65.544 43.7779Z" fill="#3C56B2" fill-opacity="0.3"/>
<path d="M61.0602 49.0765C61.8931 49.2791 62.7326 48.7682 62.9352 47.9353C63.1379 47.1024 62.627 46.263 61.7941 46.0603C60.9612 45.8577 60.1217 46.3686 59.9191 47.2015C59.7164 48.0344 60.2274 48.8739 61.0602 49.0765Z" fill="#3C56B2" fill-opacity="0.3"/>
<path d="M67.0924 50.5441C67.9253 50.7468 68.7648 50.2359 68.9674 49.403C69.1701 48.5701 68.6591 47.7306 67.8262 47.528C66.9934 47.3253 66.1539 47.8363 65.9512 48.6692C65.7486 49.502 66.2595 50.3415 67.0924 50.5441Z" fill="#3C56B2" fill-opacity="0.3"/>
<path d="M73.1248 52.0118C73.9577 52.2144 74.7972 51.7035 74.9998 50.8706C75.2025 50.0377 74.6916 49.1983 73.8587 48.9956C73.0258 48.793 72.1863 49.3039 71.9837 50.1368C71.781 50.9697 72.2919 51.8092 73.1248 52.0118Z" fill="#3C56B2" fill-opacity="0.3"/>
<path d="M48.9954 46.1411C49.8283 46.3437 50.6678 45.8328 50.8704 44.9999C51.0731 44.167 50.5621 43.3276 49.7292 43.1249C48.8963 42.9223 48.0569 43.4332 47.8542 44.2661C47.6516 45.099 48.1625 45.9385 48.9954 46.1411Z" fill="#3C56B2" fill-opacity="0.3"/>
<path d="M55.0278 47.6089C55.8607 47.8115 56.7002 47.3006 56.9028 46.4677C57.1055 45.6348 56.5945 44.7953 55.7617 44.5927C54.9288 44.3901 54.0893 44.901 53.8867 45.7339C53.684 46.5668 54.1949 47.4062 55.0278 47.6089Z" fill="#3C56B2" fill-opacity="0.3"/>
<path d="M61.0602 49.0765C61.8931 49.2791 62.7326 48.7682 62.9352 47.9353C63.1379 47.1024 62.627 46.263 61.7941 46.0603C60.9612 45.8577 60.1217 46.3686 59.9191 47.2015C59.7164 48.0344 60.2274 48.8739 61.0602 49.0765Z" fill="#3C56B2" fill-opacity="0.3"/>
<path d="M57.6863 27.49C57.833 26.8868 58.583 26.4303 59.2597 26.2755L58.958 26.2021C58.0532 25.9819 57.3032 26.4384 57.083 27.3433C56.8629 28.2481 57.3194 28.9981 58.2242 29.2183L58.5258 29.2916C57.6944 28.7699 57.5395 28.0933 57.6863 27.49ZM63.7186 28.9577C63.8654 28.3544 64.6154 27.898 65.292 27.7431L64.9904 27.6697C64.0855 27.4496 63.3355 27.9061 63.1154 28.8109C62.8952 29.7158 63.3517 30.4658 64.2566 30.6859L64.5582 30.7593C63.7267 30.2375 63.5719 29.5609 63.7186 28.9577ZM69.751 30.4253C69.8977 29.8221 70.6477 29.3656 71.3244 29.2108L71.0227 29.1374C70.1179 28.9172 69.3679 29.3737 69.1477 30.2786C68.9276 31.1834 69.3841 31.9334 70.2889 32.1536L70.5905 32.2269C69.7591 31.7052 69.6042 31.0286 69.751 30.4253ZM75.7833 31.893C75.9301 31.2897 76.6801 30.8333 77.3567 30.6784L77.0551 30.605C76.1502 30.3849 75.4002 30.8414 75.1801 31.7462C74.9599 32.6511 75.4164 33.4011 76.3213 33.6212L76.6229 33.6946C75.7914 33.1728 75.6366 32.4962 75.7833 31.893ZM63.7591 35.3569C63.9058 34.7537 64.6558 34.2972 65.3324 34.1424L65.0308 34.069C63.8244 33.7755 63.0744 34.2319 62.8542 35.1368C62.6341 36.0416 63.0905 36.7916 63.9954 37.0118L64.297 37.0852C63.7671 36.6368 63.6123 35.9602 63.7591 35.3569ZM69.7914 36.8246C69.9382 36.2213 70.6882 35.7649 71.3648 35.61L71.0632 35.5366C69.8567 35.2431 69.1067 35.6996 68.8866 36.6044C68.6664 37.5093 69.1229 38.2593 70.0277 38.4794L70.3293 38.5528C69.7995 38.1044 69.6446 37.4278 69.7914 36.8246ZM75.8238 38.2922C75.9705 37.689 76.7205 37.2325 77.3971 37.0777L77.0955 37.0043C75.8891 36.7108 75.139 37.1672 74.9189 38.0721C74.6988 38.9769 75.1552 39.7269 76.0601 39.9471L76.3617 40.0205C75.8318 39.5721 75.677 38.8955 75.8238 38.2922ZM57.7267 33.8893C57.8735 33.2861 58.6235 32.8296 59.3001 32.6747L58.9985 32.6013C57.792 32.3078 57.042 32.7643 56.8219 33.6691C56.6017 34.574 57.0582 35.324 57.963 35.5441L58.2647 35.6175C57.7348 35.1691 57.5799 34.4925 57.7267 33.8893ZM51.6944 32.4216C51.8411 31.8184 52.5911 31.3619 53.2677 31.2071L52.9661 31.1337C51.7597 30.8402 51.0097 31.2966 50.7895 32.2015C50.5694 33.1063 51.0258 33.8563 51.9307 34.0765L52.2323 34.1499C51.7025 33.7015 51.5476 33.0249 51.6944 32.4216ZM53.2429 39.1878C53.3897 38.5846 54.1397 38.1281 54.8163 37.9733L54.5147 37.8999C53.3082 37.6063 52.5582 38.0628 52.338 38.9677C52.1179 39.8725 52.5744 40.6225 53.4792 40.8427L53.7808 40.916C53.251 40.4677 53.0961 39.791 53.2429 39.1878ZM59.2752 40.6555C59.422 40.0522 60.172 39.5958 60.8486 39.4409L60.547 39.3675C59.3405 39.074 58.5905 39.5305 58.3704 40.4353C58.1502 41.3402 58.6067 42.0902 59.5116 42.3103L59.8132 42.3837C59.2833 41.9353 59.1285 41.2587 59.2752 40.6555ZM65.3076 42.1231C65.4543 41.5199 66.2043 41.0634 66.881 40.9086L66.5793 40.8352C65.3729 40.5416 64.6229 40.9981 64.4027 41.903C64.1826 42.8078 64.6391 43.5578 65.5439 43.778L65.8455 43.8513C65.3157 43.403 65.1608 42.7263 65.3076 42.1231ZM71.3399 43.5908C71.4867 42.9875 72.2367 42.5311 72.9133 42.3762L72.6117 42.3028C71.4052 42.0093 70.6552 42.4658 70.4351 43.3706C70.2149 44.2755 70.6714 45.0255 71.5763 45.2456L71.8779 45.319C71.348 44.8706 71.1932 44.194 71.3399 43.5908ZM77.3723 45.0584C77.519 44.4552 78.269 43.9987 78.9457 43.8439L78.644 43.7705C77.4376 43.4769 76.6876 43.9334 76.4674 44.8383C76.2473 45.7431 76.7037 46.4931 77.6086 46.7133L77.9102 46.7866C77.3804 46.3383 77.2255 45.6616 77.3723 45.0584ZM72.8885 50.3569C73.0352 49.7537 73.7852 49.2972 74.4618 49.1424L74.1602 49.069C73.2554 48.8488 72.5054 49.3053 72.2852 50.2102C72.0651 51.115 72.5215 51.865 73.4264 52.0852L73.728 52.1585C72.8965 51.6368 72.7417 50.9602 72.8885 50.3569ZM66.8561 48.8893C67.0029 48.286 67.7529 47.8296 68.4295 47.6747L68.1279 47.6013C67.223 47.3812 66.473 47.8377 66.2529 48.7425C66.0327 49.6474 66.4892 50.3974 67.394 50.6175L67.6957 50.6909C66.8642 50.1691 66.7093 49.4925 66.8561 48.8893ZM60.8238 47.4216C60.9705 46.8184 61.7205 46.3619 62.3971 46.2071L62.0955 46.1337C61.1907 45.9135 60.4407 46.37 60.2205 47.2749C60.0004 48.1797 60.4568 48.9297 61.3617 49.1499L61.6633 49.2232C60.8318 48.7015 60.677 48.0249 60.8238 47.4216ZM54.7914 45.954C54.9382 45.3507 55.6882 44.8943 56.3648 44.7394L56.0632 44.666C55.1583 44.4459 54.4083 44.9024 54.1882 45.8072C53.968 46.7121 54.4245 47.4621 55.3294 47.6822L55.631 47.7556C54.7995 47.2338 54.6446 46.5572 54.7914 45.954ZM48.7591 44.4863C48.9058 43.8831 49.6558 43.4266 50.3324 43.2718L50.0308 43.1984C49.126 42.9782 48.376 43.4347 48.1558 44.3396C47.9357 45.2444 48.3922 45.9944 49.297 46.2146L49.5986 46.2879C48.7672 45.7662 48.6123 45.0896 48.7591 44.4863ZM62.1701 22.1915C62.3169 21.5883 63.0669 21.1318 63.7435 20.9769L63.4419 20.9036C62.537 20.6834 61.787 21.1399 61.5669 22.0447C61.3467 22.9496 61.8032 23.6996 62.708 23.9197L63.0097 23.9931C62.1782 23.4714 62.0233 22.7947 62.1701 22.1915ZM68.2024 23.6592C68.3492 23.0559 69.0992 22.5994 69.7758 22.4446L69.4742 22.3712C68.5694 22.1511 67.8194 22.6075 67.5992 23.5124C67.3791 24.4172 67.8355 25.1672 68.7404 25.3874L69.042 25.4608C68.2105 24.939 68.0557 24.2624 68.2024 23.6592ZM74.2348 25.1268C74.3816 24.5236 75.1316 24.0671 75.8082 23.9122L75.5066 23.8389C74.6017 23.6187 73.8517 24.0752 73.6316 24.98C73.4114 25.8849 73.8679 26.6349 74.7727 26.855L75.0744 26.9284C74.2429 26.4067 74.088 25.73 74.2348 25.1268Z" fill="#1A1C1E" fill-opacity="0.5"/>
</g>
<defs>
<filter id="filter0_b_519_17466" x="-18.253" y="-18.253" width="156.506" height="156.506" filterUnits="userSpaceOnUse" color-interpolation-filters="sRGB">
<feFlood flood-opacity="0" result="BackgroundImageFix"/>
<feGaussianBlur in="BackgroundImageFix" stdDeviation="9.1"/>
<feComposite in2="SourceAlpha" operator="in" result="effect1_backgroundBlur_519_17466"/>
<feBlend mode="normal" in="SourceGraphic" in2="effect1_backgroundBlur_519_17466" result="shape"/>
</filter>
<filter id="filter1_b_519_17466" x="27.2028" y="36.0864" width="65.8401" height="60.819" filterUnits="userSpaceOnUse" color-interpolation-filters="sRGB">
<feFlood flood-opacity="0" result="BackgroundImageFix"/>
<feGaussianBlur in="BackgroundImageFix" stdDeviation="4.85"/>
<feComposite in2="SourceAlpha" operator="in" result="effect1_backgroundBlur_519_17466"/>
<feBlend mode="normal" in="SourceGraphic" in2="effect1_backgroundBlur_519_17466" result="shape"/>
</filter>
<filter id="filter2_b_519_17466" x="21.1268" y="73.6672" width="59.5101" height="40.0411" filterUnits="userSpaceOnUse" color-interpolation-filters="sRGB">
<feFlood flood-opacity="0" result="BackgroundImageFix"/>
<feGaussianBlur in="BackgroundImageFix" stdDeviation="4.85"/>
<feComposite in2="SourceAlpha" operator="in" result="effect1_backgroundBlur_519_17466"/>
<feBlend mode="normal" in="SourceGraphic" in2="effect1_backgroundBlur_519_17466" result="shape"/>
</filter>
<filter id="filter3_b_519_17466" x="28.2343" y="32.9608" width="67.9343" height="35.9813" filterUnits="userSpaceOnUse" color-interpolation-filters="sRGB">
<feFlood flood-opacity="0" result="BackgroundImageFix"/>
<feGaussianBlur in="BackgroundImageFix" stdDeviation="4.85"/>
<feComposite in2="SourceAlpha" operator="in" result="effect1_backgroundBlur_519_17466"/>
<feBlend mode="normal" in="SourceGraphic" in2="effect1_backgroundBlur_519_17466" result="shape"/>
</filter>
<filter id="filter4_b_519_17466" x="33.2638" y="40.5702" width="53.013" height="50.7306" filterUnits="userSpaceOnUse" color-interpolation-filters="sRGB">
<feFlood flood-opacity="0" result="BackgroundImageFix"/>
<feGaussianBlur in="BackgroundImageFix" stdDeviation="4.85"/>
<feComposite in2="SourceAlpha" operator="in" result="effect1_backgroundBlur_519_17466"/>
<feBlend mode="normal" in="SourceGraphic" in2="effect1_backgroundBlur_519_17466" result="shape"/>
</filter>
</defs>
</svg>
