<svg width="22" height="23" viewBox="0 0 22 23" fill="none" xmlns="http://www.w3.org/2000/svg">
<g clip-path="url(#clip0_519_17839)">
<path fill-rule="evenodd" clip-rule="evenodd" d="M2.73613 5.56015C4.17821 5.56015 5.34725 4.3911 5.34725 2.94902C5.34725 1.50693 4.17821 0.337891 2.73613 0.337891C1.29404 0.337891 0.125 1.50693 0.125 2.94902C0.125 4.3911 1.29404 5.56015 2.73613 5.56015ZM21.9279 22.0871V13.8505C21.9279 11.4683 21.5666 9.56095 20.3665 8.46935C19.4517 7.63485 18.1859 7.0694 15.7908 7.18813C13.6896 7.29404 12.4349 9.12705 12.2034 9.49946L12.1394 7.49733H7.82422V22.0862H12.3589V14.4416L12.3512 14.2135C12.3879 13.5943 12.487 12.7452 12.9107 12.0995C13.4231 11.3188 14.4208 11.0489 15.468 11.1599C17.0293 11.3214 17.3659 12.963 17.3659 13.7301V22.0879L21.9279 22.0871ZM0.44873 7.49828H4.97058V22.0871H0.44873V7.49828Z" fill="white"/>
</g>
<defs>
<clipPath id="clip0_519_17839">
<rect width="22" height="23" fill="white"/>
</clipPath>
</defs>
</svg>
