<svg width="24" height="17" viewBox="0 0 24 17" fill="none" xmlns="http://www.w3.org/2000/svg">
<g clip-path="url(#clip0_519_17851)">
<path d="M23.7609 4.16641C23.7609 4.16641 23.5266 2.60365 22.8047 1.91745C21.8906 1.01433 20.8688 1.0099 20.4 0.956771C17.0438 0.726562 12.0047 0.726563 12.0047 0.726563H11.9953C11.9953 0.726563 6.95625 0.726562 3.6 0.956771C3.13125 1.0099 2.10938 1.01433 1.19531 1.91745C0.473438 2.60365 0.24375 4.16641 0.24375 4.16641C0.24375 4.16641 0 6.00365 0 7.83645V9.55417C0 11.387 0.239062 13.2242 0.239062 13.2242C0.239062 13.2242 0.473437 14.787 1.19062 15.4732C2.10469 16.3763 3.30469 16.3453 3.83906 16.4427C5.76094 16.6154 12 16.6685 12 16.6685C12 16.6685 17.0438 16.6596 20.4 16.4339C20.8688 16.3807 21.8906 16.3763 22.8047 15.4732C23.5266 14.787 23.7609 13.2242 23.7609 13.2242C23.7609 13.2242 24 11.3914 24 9.55417V7.83645C24 6.00365 23.7609 4.16641 23.7609 4.16641ZM9.52031 11.6393V5.26875L16.0031 8.4651L9.52031 11.6393Z" fill="white"/>
</g>
<defs>
<clipPath id="clip0_519_17851">
<rect width="24" height="17" fill="white"/>
</clipPath>
</defs>
</svg>
