<svg width="75" height="75" viewBox="0 0 75 75" fill="none" xmlns="http://www.w3.org/2000/svg">
<g clip-path="url(#clip0_519_17458)">
<g filter="url(#filter0_b_519_17458)">
<path d="M61.1979 8.04663L8.7683 12.9319C7.71365 13.0393 6.74398 13.5585 6.06997 14.3768C5.39596 15.195 5.07206 16.2462 5.16864 17.3019L7.91751 46.803C8.01641 47.8644 8.53246 48.8432 9.35237 49.5246C10.1723 50.2059 11.229 50.534 12.2906 50.4369L64.6928 45.5542C65.7439 45.4472 66.7108 44.9311 67.3846 44.1173C68.0585 43.3036 68.3852 42.2574 68.2944 41.2048L65.5455 11.7037C65.4522 10.6429 64.9422 9.66239 64.1273 8.97691C63.3124 8.29142 62.259 7.9569 61.1979 8.04663ZM46.1978 30.7311L30.3324 40.1193C30.0473 40.2878 29.7283 40.3908 29.3985 40.4209C28.9785 40.4586 28.5563 40.3781 28.1797 40.1884C27.8445 40.0172 27.5582 39.7637 27.3475 39.4517C27.1369 39.1397 27.0089 38.7794 26.9754 38.4045L25.4527 22.0622C25.415 21.6817 25.477 21.2979 25.6325 20.9486C25.788 20.5992 26.0317 20.2963 26.3396 20.0696C26.669 19.8236 27.0593 19.6723 27.4684 19.6322C27.8196 19.5998 28.1734 19.6522 28.4999 19.7853L45.8881 26.7393C46.2748 26.8942 46.6104 27.1542 46.857 27.4899C47.1036 27.8256 47.2513 28.2237 47.2836 28.639C47.3158 29.0543 47.2312 29.4703 47.0393 29.84C46.8474 30.2097 46.5559 30.5184 46.1978 30.7311Z" fill="#FA00FF" fill-opacity="0.3"/>
</g>
<path d="M61.0087 6.01591L8.57911 10.9012C6.98043 11.052 5.50684 11.8308 4.48162 13.0667C3.45641 14.3026 2.96329 15.8947 3.11045 17.4937L5.85932 46.9948C6.00841 48.5948 6.78655 50.0703 8.02278 51.097C9.25902 52.1236 10.8522 52.6176 12.4525 52.4703L64.8821 47.585C66.4772 47.4346 67.9479 46.6589 68.973 45.4275C69.998 44.1961 70.494 42.609 70.3526 41.0131L67.6038 11.512C67.5325 10.7178 67.3052 9.94536 66.935 9.23905C66.5648 8.53274 66.059 7.9064 65.4464 7.39587C64.8337 6.88535 64.1265 6.50068 63.365 6.26388C62.6035 6.02709 61.8028 5.94282 61.0087 6.01591ZM68.2944 41.2049C68.3933 42.2663 68.067 43.3236 67.3871 44.1447C66.7072 44.9658 65.7292 45.4835 64.668 45.5842L12.2658 50.467C11.2083 50.5564 10.1582 50.2244 9.34433 49.5433C8.53042 48.8622 8.01852 47.8872 7.9201 46.8305L5.17123 17.3294C5.07425 16.269 5.40154 15.2133 6.0814 14.3937C6.76125 13.5742 7.73824 13.0575 8.79833 12.9569L61.2005 8.07412C62.2521 7.98517 63.2965 8.3129 64.1088 8.9867C64.9211 9.66049 65.4361 10.6264 65.543 11.6763L68.2944 41.2049Z" fill="#801B9A"/>
<path d="M45.1307 28.6368L27.7213 21.6779C27.6937 21.6749 27.6657 21.6775 27.639 21.6855C27.6044 21.6831 27.5697 21.6863 27.5361 21.6951C27.509 21.7143 27.4877 21.7406 27.4747 21.7711C27.4616 21.8017 27.4573 21.8353 27.4623 21.8681L28.9856 38.2172C28.986 38.2506 28.9961 38.2831 29.0147 38.3109C29.0332 38.3386 29.0595 38.3604 29.0902 38.3735C29.1178 38.3901 29.15 38.3974 29.1821 38.3944C29.2142 38.3914 29.2444 38.3783 29.2686 38.3569L45.1552 28.9737C45.21 28.9685 45.2605 28.9154 45.249 28.7919C45.2506 28.7563 45.2397 28.7212 45.2181 28.6928C45.1964 28.6645 45.1655 28.6446 45.1307 28.6368Z" fill="#AE69D4"/>
<path d="M45.8881 26.7393L28.5 19.7853C28.1734 19.6523 27.8196 19.5998 27.4685 19.6323C27.0594 19.6724 26.669 19.8236 26.3397 20.0696C26.0317 20.2963 25.7881 20.5992 25.6326 20.9486C25.477 21.2979 25.4151 21.6817 25.4527 22.0623L26.9755 38.4045C27.0089 38.7794 27.137 39.1397 27.3476 39.4517C27.5582 39.7637 27.8445 40.0172 28.1797 40.1885C28.5564 40.3781 28.9786 40.4586 29.3986 40.4209C29.7284 40.3909 30.0474 40.2879 30.3324 40.1193L46.1978 30.7311C46.556 30.5184 46.8474 30.2098 47.0393 29.8401C47.2312 29.4703 47.3158 29.0543 47.2836 28.639C47.2514 28.2237 47.1036 27.8257 46.857 27.49C46.6104 27.1543 46.2748 26.8942 45.8881 26.7393ZM45.1552 28.9737L29.2761 38.3631C29.2519 38.3845 29.2217 38.3976 29.1896 38.4006C29.1575 38.4036 29.1253 38.3963 29.0977 38.3798C29.067 38.3666 29.0408 38.3449 29.0222 38.3171C29.0036 38.2894 28.9935 38.2568 28.9931 38.2234L27.4698 21.8743C27.4648 21.8415 27.4691 21.8079 27.4822 21.7774C27.4952 21.7468 27.5165 21.7205 27.5436 21.7014C27.5772 21.6926 27.6119 21.6893 27.6465 21.6918C27.6732 21.6837 27.7012 21.6811 27.7288 21.6841L45.1176 28.645C45.1524 28.6528 45.1834 28.6726 45.205 28.701C45.2266 28.7293 45.2376 28.7644 45.2359 28.8001C45.2605 28.9154 45.2081 28.948 45.1552 28.9737Z" fill="#FA00FF" fill-opacity="0.3"/>
<path d="M45.8881 26.7393L28.5 19.7853C28.1734 19.6523 27.8196 19.5998 27.4685 19.6323C27.0594 19.6724 26.669 19.8236 26.3397 20.0696C26.0317 20.2963 25.7881 20.5992 25.6326 20.9486C25.477 21.2979 25.4151 21.6817 25.4527 22.0623L26.9755 38.4045C27.0089 38.7794 27.137 39.1397 27.3476 39.4517C27.5582 39.7637 27.8445 40.0172 28.1797 40.1885C28.5564 40.3781 28.9786 40.4586 29.3986 40.4209C29.7284 40.3909 30.0474 40.2879 30.3324 40.1193L46.1978 30.7311C46.556 30.5184 46.8474 30.2098 47.0393 29.8401C47.2312 29.4703 47.3158 29.0543 47.2836 28.639C47.2514 28.2237 47.1036 27.8257 46.857 27.49C46.6104 27.1543 46.2748 26.8942 45.8881 26.7393ZM45.1552 28.9737L29.2761 38.3631C29.2519 38.3845 29.2217 38.3976 29.1896 38.4006C29.1575 38.4036 29.1253 38.3963 29.0977 38.3798C29.067 38.3666 29.0408 38.3449 29.0222 38.3171C29.0036 38.2894 28.9935 38.2568 28.9931 38.2234L27.4698 21.8743C27.4648 21.8415 27.4691 21.8079 27.4822 21.7774C27.4952 21.7468 27.5165 21.7205 27.5436 21.7014C27.5772 21.6926 27.6119 21.6893 27.6465 21.6918C27.6732 21.6837 27.7012 21.6811 27.7288 21.6841L45.1176 28.645C45.1524 28.6528 45.1834 28.6726 45.205 28.701C45.2266 28.7293 45.2376 28.7644 45.2359 28.8001C45.2605 28.9154 45.2081 28.948 45.1552 28.9737Z" fill="white" fill-opacity="0.5"/>
<path d="M19.6338 55.1229L18.6595 55.2137C18.0889 55.2687 17.5632 55.5472 17.1972 55.9884C16.8312 56.4296 16.6546 56.9977 16.706 57.5687L17.3453 64.4294C17.3708 64.7133 17.452 64.9894 17.5843 65.2419C17.7165 65.4944 17.8972 65.7183 18.116 65.901C18.3348 66.0837 18.5874 66.2215 18.8595 66.3065C19.1315 66.3916 19.4177 66.4222 19.7016 66.3966L20.6758 66.3059C20.9619 66.2819 21.2404 66.2017 21.4954 66.0697C21.7504 65.9377 21.9767 65.7566 22.1614 65.5368C22.3461 65.3169 22.4855 65.0628 22.5716 64.7889C22.6577 64.515 22.6887 64.2268 22.663 63.9408L22.0237 57.0801C21.9971 56.794 21.9139 56.516 21.779 56.2623C21.644 56.0085 21.4601 55.7841 21.2378 55.602C21.0154 55.42 20.7592 55.2839 20.4838 55.2016C20.2085 55.1194 19.9195 55.0926 19.6338 55.1229Z" fill="#AE69D4"/>
<path d="M24.0264 56.8865C23.921 55.7755 23.3795 54.7515 22.5206 54.039C21.6616 53.3265 20.5552 52.9835 19.4439 53.0852L18.4696 53.176C17.3593 53.2831 16.3365 53.8251 15.6243 54.6836C14.9121 55.5421 14.5685 56.6475 14.6683 57.7585L14.677 57.8511C14.7968 59.1375 13.8512 60.2775 12.5648 60.3974L11.2647 60.5185C10.6963 60.5715 10.2785 61.0751 10.3315 61.6435C10.3844 62.2119 10.8881 62.6297 11.4565 62.5767L12.7566 62.4556C14.043 62.3357 15.1829 63.2814 15.3028 64.5678L15.3108 64.6535C15.4145 65.7659 15.9553 66.7917 16.8146 67.5057C17.6739 68.2197 18.7814 68.5635 19.8939 68.4617L20.8682 68.3709C21.9804 68.2654 23.0053 67.7229 23.7179 66.8625C24.4305 66.002 24.7725 64.8939 24.6688 63.7816C24.5431 62.4326 25.5347 61.2372 26.8837 61.1116L67.7255 57.306C68.2939 57.253 68.7117 56.7493 68.6587 56.181C68.6058 55.6126 68.1021 55.1948 67.5337 55.2478L26.6439 59.0578C25.3215 59.181 24.1496 58.2089 24.0264 56.8865ZM22.6074 63.939C22.6609 64.5128 22.4847 65.0844 22.1175 65.5286C21.7502 65.9727 21.2219 66.2531 20.6483 66.3084L19.7015 66.3966C19.4176 66.4222 19.1315 66.3915 18.8594 66.3065C18.5874 66.2215 18.3347 66.0837 18.1159 65.901C17.8971 65.7183 17.7165 65.4943 17.5842 65.2418C17.452 64.9893 17.3708 64.7132 17.3452 64.4293L16.706 57.5686C16.6546 56.9977 16.8312 56.4296 17.1972 55.9884C17.5632 55.5471 18.0889 55.2686 18.6595 55.2136L19.6337 55.1229C19.9189 55.0926 20.2073 55.1192 20.4821 55.2011C20.757 55.2829 21.0129 55.4185 21.235 55.5998C21.4572 55.7812 21.6412 56.0048 21.7765 56.2577C21.9117 56.5105 21.9955 56.7877 22.023 57.0732L22.6074 63.939Z" fill="#801B9A"/>
</g>
<defs>
<filter id="filter0_b_519_17458" x="-2.87022" y="0.0101599" width="79.2017" height="58.4656" filterUnits="userSpaceOnUse" color-interpolation-filters="sRGB">
<feFlood flood-opacity="0" result="BackgroundImageFix"/>
<feGaussianBlur in="BackgroundImageFix" stdDeviation="4"/>
<feComposite in2="SourceAlpha" operator="in" result="effect1_backgroundBlur_519_17458"/>
<feBlend mode="normal" in="SourceGraphic" in2="effect1_backgroundBlur_519_17458" result="shape"/>
</filter>
<clipPath id="clip0_519_17458">
<rect width="68.7143" height="68.7143" fill="white" transform="translate(0 6.39276) scale(1.00277) rotate(-5.32337)"/>
</clipPath>
</defs>
</svg>
